{"glyphs":{":":{"x_min":0,"x_max":207,"ha":207,"o":"m 58 330 q 58 355 74 370 q 89 384 115 384 q 141 384 156 370 q 170 355 170 330 q 170 303 156 288 q 141 273 115 273 q 89 273 74 288 q 58 303 58 330 z m 21 49 q 21 74 36 88 q 52 103 78 103 q 104 103 118 88 q 133 74 133 49 q 133 22 118 7 q 104 -8 78 -8 q 52 -8 36 7 q 21 22 21 49 z"},"$":{"x_min":0,"x_max":460,"ha":460,"o":"m 465 595 l 450 465 q 449 462 444 462 q 440 462 439 465 q 426 525 398 564 q 369 602 332 612 l 292 379 q 299 372 315 360 q 374 314 405 276 q 436 238 436 186 q 436 169 434 160 q 421 90 366 44 q 311 -3 223 -11 l 206 -109 q 205 -114 195 -114 q 188 -114 182 -112 q 177 -109 178 -105 l 194 -12 l 192 -12 q 111 -12 39 22 q 29 29 33 41 l 65 182 q 65 187 70 187 q 76 187 77 182 q 110 29 199 14 l 245 278 l 222 296 q 184 325 162 345 q 140 365 125 392 q 110 419 110 452 q 110 466 113 481 q 127 549 182 588 q 236 628 308 635 l 323 722 q 324 727 334 727 q 340 727 346 724 q 352 722 351 718 l 337 636 q 395 636 454 612 q 468 605 465 595 z m 266 400 l 304 615 q 257 612 234 576 q 211 541 211 503 q 211 472 225 448 q 239 423 266 400 z m 329 138 q 329 172 314 201 q 298 230 270 256 l 227 12 q 268 15 294 42 q 320 69 327 115 q 329 131 329 138 z"},"?":{"x_min":0,"x_max":295,"ha":295,"o":"m 98 295 l 99 305 q 104 336 122 358 q 139 380 170 406 q 196 428 211 444 q 226 460 236 484 q 247 507 247 540 q 247 568 238 586 q 230 605 211 605 q 184 605 180 565 q 178 540 167 522 q 156 504 126 504 q 104 504 92 516 q 81 528 81 546 q 81 584 122 604 q 164 625 219 625 q 276 625 310 600 q 344 576 344 529 q 344 521 342 505 q 336 475 321 452 q 306 429 290 414 q 274 399 242 372 q 196 337 176 310 q 156 284 151 249 q 150 242 150 227 q 150 210 153 192 q 154 188 147 185 q 140 182 138 186 q 119 210 108 240 q 98 271 98 295 z m 65 49 q 65 74 80 88 q 96 103 122 103 q 148 103 162 88 q 177 74 177 49 q 177 22 162 7 q 148 -8 122 -8 q 96 -8 80 7 q 65 22 65 49 z"},"<":{"x_min":0,"x_max":407,"ha":407,"o":"m 376 46 q 376 22 369 25 l 35 173 q 30 176 30 190 q 30 205 35 207 l 369 354 q 372 356 374 350 q 376 344 376 334 q 376 310 369 306 l 97 190 l 369 74 q 376 71 376 46 z"},"'":{"x_min":0,"x_max":139,"ha":139,"o":"m 94 609 q 95 620 134 630 q 173 640 198 640 q 210 640 208 637 l 90 296 q 89 293 81 292 q 73 292 73 295 z"},"=":{"x_min":0,"x_max":468,"ha":468,"o":"m 29 261 q 29 269 30 276 q 32 283 33 283 l 434 283 q 436 283 438 276 q 439 268 439 260 q 439 251 438 244 q 436 236 434 236 l 34 236 q 32 236 30 244 q 29 252 29 261 z m 29 121 q 29 129 30 136 q 32 143 33 143 l 434 143 q 436 143 438 136 q 439 128 439 120 q 439 111 438 104 q 436 96 434 96 l 34 96 q 32 96 30 104 q 29 112 29 121 z"},"a":{"x_min":0,"x_max":444,"ha":444,"o":"m 418 78 q 421 78 423 74 q 425 71 423 69 q 359 -9 311 -9 q 285 -9 273 6 q 261 20 261 51 q 261 68 264 89 l 276 157 q 238 77 186 32 q 133 -13 83 -13 q 52 -13 34 6 q 16 25 16 63 q 16 130 60 210 q 105 289 170 344 q 236 399 294 399 q 312 399 332 392 q 351 386 365 373 q 384 387 396 407 q 398 409 400 409 q 403 409 406 407 q 409 405 408 404 l 350 89 q 347 76 347 66 q 347 42 361 42 q 380 42 415 77 q 416 78 418 78 z m 294 253 q 297 270 297 283 q 297 315 282 332 q 268 350 242 350 q 196 350 160 300 q 125 251 111 172 q 106 140 106 124 q 106 91 117 76 q 128 60 147 60 q 177 60 208 92 q 240 123 264 168 q 287 214 294 253 z"},"L":{"x_min":0,"x_max":505,"ha":505,"o":"m 14 12 q 42 12 56 17 q 69 22 76 36 q 82 50 88 81 l 170 544 q 174 570 174 577 q 174 598 162 606 q 150 613 120 613 q 118 613 118 619 q 118 625 120 625 l 165 624 q 205 622 229 622 q 253 622 295 624 l 342 625 q 344 625 344 619 q 344 613 342 613 q 314 613 300 608 q 287 602 280 588 q 273 573 268 543 l 187 85 q 184 66 184 53 q 184 34 192 28 q 201 21 223 21 l 249 21 q 323 21 379 58 q 435 94 480 171 q 481 172 484 172 q 492 172 491 168 q 466 75 456 15 q 454 7 450 4 q 447 0 440 0 l 14 0 q 12 0 12 6 q 12 12 14 12 z"},"3":{"x_min":0,"x_max":392,"ha":392,"o":"m 244 326 q 298 322 328 287 q 357 252 357 202 q 357 187 354 170 q 341 88 284 38 q 226 -12 146 -12 q 58 -12 12 67 l 11 68 q 11 70 16 72 q 20 75 21 73 q 37 53 63 41 q 89 29 112 29 q 174 29 208 69 q 243 109 254 172 q 258 191 258 213 q 258 315 142 315 q 138 315 138 320 q 138 326 142 326 q 209 326 244 363 q 278 400 289 467 q 293 488 293 510 q 293 584 226 584 q 191 584 155 564 q 119 545 99 510 q 98 507 94 507 q 91 507 89 510 q 87 512 89 515 q 117 569 168 602 q 218 636 274 636 q 329 636 362 604 q 395 572 395 520 q 395 460 353 405 q 311 350 244 326 z"},";":{"x_min":0,"x_max":222,"ha":222,"o":"m 170 330 q 170 303 156 288 q 141 273 115 273 q 89 273 74 288 q 58 303 58 330 q 58 355 74 370 q 89 384 115 384 q 141 384 156 370 q 170 355 170 330 z m 146 32 q 146 12 142 -5 q 134 -44 102 -87 q 70 -130 27 -160 q 26 -161 24 -161 q 21 -161 19 -157 q 17 -153 20 -151 q 87 -92 98 -25 q 100 -15 100 -12 q 100 -7 98 -1 q 91 -8 74 -8 q 49 -8 35 8 q 21 24 21 46 q 21 70 36 87 q 52 104 82 104 q 113 104 130 85 q 146 66 146 32 z"},"J":{"x_min":0,"x_max":317,"ha":317,"o":"m -30 -182 q 15 -155 41 -101 q 67 -47 83 40 l 172 544 q 175 564 175 576 q 175 598 164 606 q 152 613 122 613 q 119 613 119 619 q 119 625 122 625 l 167 624 q 207 622 232 622 q 261 622 301 624 l 345 625 q 348 625 348 619 q 348 613 345 613 q 318 613 304 607 q 290 601 284 587 q 277 573 271 542 l 187 67 q 173 -11 148 -60 q 122 -108 82 -138 q 41 -168 -25 -193 q -27 -194 -30 -189 q -33 -184 -30 -182 z"},"V":{"x_min":0,"x_max":599,"ha":599,"o":"m 675 613 q 641 613 613 592 q 585 571 551 506 l 288 1 q 285 -4 275 -4 q 263 -4 261 1 l 130 542 q 120 582 107 598 q 94 613 69 613 q 66 613 66 619 q 66 625 69 625 l 117 624 q 149 622 164 622 q 199 622 243 624 l 288 625 q 291 625 291 619 q 291 613 288 613 q 260 613 245 604 q 230 595 230 573 q 230 564 233 552 l 332 140 l 519 509 q 534 539 534 560 q 534 585 516 599 q 498 613 468 613 q 465 613 465 619 q 465 625 468 625 l 515 624 q 553 622 587 622 q 606 622 632 624 l 675 625 q 679 625 679 619 q 679 613 675 613 z"},"\"":{"x_min":0,"x_max":337,"ha":337,"o":"m 106 609 q 107 620 146 630 q 185 640 210 640 q 222 640 220 637 l 102 296 q 101 293 93 292 q 85 292 85 295 z m 269 609 q 270 620 309 630 q 348 640 373 640 q 385 640 383 637 l 265 296 q 264 293 256 292 q 248 292 248 295 z"},"7":{"x_min":0,"x_max":405,"ha":405,"o":"m 35 10 q 35 17 42 27 l 371 536 q 373 539 372 541 q 372 543 368 543 q 235 543 186 540 q 137 536 119 523 q 101 510 88 475 q 87 473 83 473 q 81 473 78 474 q 76 476 77 478 l 142 653 q 142 654 146 654 q 154 654 153 650 q 150 643 150 637 q 150 630 159 628 q 168 625 191 625 l 429 625 q 433 625 435 620 q 437 615 435 612 l 153 16 q 148 6 145 3 q 142 0 132 0 l 50 0 q 35 0 35 10 z"},"S":{"x_min":0,"x_max":470,"ha":470,"o":"m 39 22 q 29 29 33 41 l 65 182 q 65 187 70 187 q 76 187 77 182 q 114 12 219 12 q 268 12 298 46 q 329 81 329 138 q 329 186 302 221 q 274 256 222 296 q 184 325 162 345 q 140 365 125 392 q 110 419 110 452 q 110 466 113 481 q 129 556 192 596 q 256 636 336 636 q 395 636 454 612 q 468 605 465 595 l 450 465 q 449 462 444 462 q 440 462 439 465 q 423 535 388 575 q 353 615 309 615 q 275 615 253 596 q 231 578 221 552 q 211 527 211 503 q 211 473 225 449 q 239 425 258 408 q 277 390 315 360 q 374 314 405 276 q 436 238 436 186 q 436 169 434 160 q 420 84 357 36 q 294 -12 192 -12 q 111 -12 39 22 z"},"}":{"x_min":0,"x_max":264,"ha":264,"o":"m 248 640 q 248 606 235 528 q 218 434 218 393 q 218 357 230 339 q 243 321 274 310 q 276 310 276 304 q 276 297 274 297 q 240 291 220 272 q 200 254 186 210 q 171 166 156 79 q 141 -7 122 -48 q 102 -89 70 -103 q 38 -117 -22 -117 q -25 -117 -25 -111 q -25 -105 -22 -105 q 32 -105 49 1 q 70 115 88 168 q 105 222 134 250 q 163 279 222 303 q 168 323 147 347 q 126 371 126 413 q 126 434 132 468 q 137 503 144 542 l 156 607 q 160 635 160 646 q 160 678 150 696 q 140 713 124 713 q 122 713 122 719 q 122 725 124 725 q 173 725 199 718 q 225 711 236 693 q 248 675 248 640 z"},"Z":{"x_min":0,"x_max":557,"ha":557,"o":"m 6 0 q 2 0 1 4 q 0 9 2 13 l 469 600 q 474 605 474 606 q 473 608 467 608 q 356 608 296 597 q 235 586 194 556 q 154 527 112 465 l 108 463 q 105 463 103 465 q 101 467 102 469 l 175 655 q 176 656 179 656 q 182 656 185 654 q 188 653 187 651 q 185 646 185 639 q 185 630 194 628 q 204 625 232 625 l 586 625 q 590 625 592 620 q 593 615 591 612 l 129 27 q 125 22 126 20 q 126 19 131 19 l 233 19 q 335 19 398 48 q 460 78 510 154 q 512 158 518 157 q 523 156 522 152 l 483 8 q 483 5 480 2 q 477 -2 474 -2 q 332 0 6 0 z"},"x":{"x_min":0,"x_max":430,"ha":430,"o":"m 432 330 q 430 315 418 304 q 405 292 387 292 q 374 292 365 296 q 356 301 347 309 q 340 316 335 319 q 330 322 323 322 q 312 322 298 302 l 251 231 l 296 92 q 305 64 316 56 q 327 47 343 47 q 357 47 369 54 q 381 60 394 74 q 395 75 397 75 q 401 75 403 72 q 405 68 402 65 q 364 26 335 8 q 306 -11 280 -11 q 253 -11 238 4 q 224 20 211 60 l 185 141 l 135 62 q 106 16 91 2 q 76 -11 54 -11 q 28 -11 8 10 q -13 30 -9 55 q -7 70 6 81 q 18 92 35 92 q 49 92 58 88 q 66 83 75 75 q 80 70 86 66 q 92 63 99 63 q 110 63 124 83 l 178 162 l 135 292 q 126 320 114 329 q 103 338 88 338 q 74 338 62 332 q 50 325 36 311 q 35 310 33 310 q 30 310 28 314 q 25 317 28 319 q 65 358 94 376 q 124 395 151 395 q 177 395 192 380 q 206 365 220 325 l 243 253 l 288 323 q 316 368 331 382 q 346 395 368 395 q 394 395 414 375 q 435 355 432 330 z"},")":{"x_min":0,"x_max":290,"ha":290,"o":"m 270 424 q 270 370 259 304 q 234 163 158 50 q 83 -63 -22 -117 l -23 -117 q -26 -117 -28 -114 q -30 -111 -28 -109 q 38 -37 81 64 q 124 164 148 304 q 164 400 164 471 q 164 602 119 717 l 119 718 q 119 721 122 724 q 124 726 126 725 q 198 683 234 606 q 270 528 270 424 z"},"&":{"x_min":0,"x_max":765,"ha":765,"o":"m 777 360 q 777 332 760 302 q 742 273 714 254 q 686 235 655 235 q 630 235 587 253 q 566 126 493 57 q 420 -12 316 -12 q 243 -12 186 20 q 130 53 99 108 q 68 162 68 225 q 68 251 74 278 q 85 332 118 374 q 152 417 200 441 q 249 465 304 465 q 353 465 388 448 q 437 505 437 544 q 437 563 430 572 q 423 582 408 591 q 393 600 386 609 q 379 618 379 637 q 379 660 392 674 q 406 688 429 688 q 458 688 473 665 q 488 642 488 605 q 488 543 450 485 q 413 427 358 378 q 303 330 208 256 l 166 223 q 177 141 230 94 q 282 46 353 46 q 404 46 449 72 q 494 98 525 148 q 556 197 566 263 q 562 265 540 277 q 497 299 474 308 q 451 318 429 318 q 412 318 404 312 q 396 307 396 297 q 396 285 409 270 q 422 253 422 242 q 422 230 414 220 q 405 211 388 211 q 373 211 362 220 q 352 230 352 250 q 352 279 372 308 q 393 337 425 356 q 457 374 490 374 q 516 374 543 364 q 570 353 612 332 q 646 315 668 306 q 690 297 708 297 q 721 297 730 302 q 738 307 738 316 q 738 323 725 336 q 715 346 710 352 q 706 359 706 370 q 706 383 716 391 q 725 399 742 399 q 777 399 777 360 z m 164 248 q 182 263 183 264 q 271 333 314 373 q 295 435 250 435 q 217 435 196 400 q 175 365 167 310 q 162 277 164 248 z"},"_":{"x_min":0,"x_max":363,"ha":363,"o":"m -12 -55 q -12 -47 -11 -40 q -10 -33 -8 -33 l 311 -33 q 313 -33 314 -40 q 316 -48 316 -57 q 316 -65 314 -72 q 313 -80 311 -80 l -7 -80 q -9 -80 -10 -72 q -12 -64 -12 -55 z"},"v":{"x_min":0,"x_max":448,"ha":448,"o":"m 85 100 q 85 127 96 156 q 108 184 132 229 q 153 270 159 282 q 167 298 167 303 q 167 310 156 310 l 108 310 q 73 310 57 300 q 41 290 33 267 q 31 263 27 263 q 24 263 22 265 q 20 267 21 270 q 37 317 50 341 q 62 365 80 376 q 97 387 126 387 l 219 387 q 230 387 230 383 q 230 380 227 375 q 206 326 188 274 q 171 223 166 189 q 164 178 164 159 q 164 115 184 90 q 205 64 239 64 q 267 64 294 81 q 321 98 340 128 q 360 159 365 199 q 366 206 366 219 q 366 243 358 260 q 350 276 332 296 q 319 310 312 322 q 306 333 306 347 q 306 371 322 384 q 337 396 361 396 q 388 396 402 378 q 415 360 415 314 q 415 287 413 270 q 406 196 371 130 q 336 65 286 26 q 237 -13 189 -13 q 145 -13 115 20 q 85 54 85 100 z"},"O":{"x_min":0,"x_max":655,"ha":655,"o":"m 53 239 q 53 269 60 313 q 76 405 126 478 q 177 552 252 594 q 327 636 411 636 q 483 636 536 604 q 588 572 616 516 q 644 459 644 386 q 644 348 637 313 q 620 215 566 141 q 512 67 436 28 q 361 -12 281 -12 q 210 -12 158 20 q 107 53 80 110 q 53 167 53 239 z m 523 260 q 531 304 531 357 q 531 468 489 540 q 447 612 372 612 q 300 612 246 546 q 192 479 173 366 q 165 313 165 270 q 165 160 206 87 q 248 14 324 14 q 395 14 450 80 q 504 147 523 260 z"},"(":{"x_min":0,"x_max":290,"ha":290,"o":"m 60 184 q 60 238 71 304 q 96 445 172 558 q 247 671 352 725 l 353 725 q 356 725 358 722 q 360 719 358 717 q 292 645 249 544 q 206 444 182 304 q 166 208 166 137 q 166 7 211 -109 l 211 -110 q 211 -113 208 -116 q 206 -118 204 -117 q 132 -75 96 2 q 60 80 60 184 z"},"C":{"x_min":0,"x_max":588,"ha":588,"o":"m 53 241 q 53 273 60 313 q 78 412 135 486 q 192 559 272 598 q 351 636 436 636 q 476 636 518 628 q 561 619 585 607 q 591 603 592 599 q 594 595 593 584 l 577 450 q 577 447 572 447 q 567 447 566 450 q 549 525 504 567 q 460 609 395 609 q 308 609 248 539 q 189 469 172 346 q 166 304 166 264 q 166 191 185 133 q 204 75 240 42 q 277 8 326 8 q 376 8 428 45 q 480 82 538 160 q 539 162 542 162 q 545 162 548 160 q 550 159 549 157 l 522 42 q 519 30 516 26 q 513 21 504 19 q 414 -12 320 -12 q 181 -12 117 60 q 53 133 53 241 z"},"W":{"x_min":0,"x_max":814,"ha":814,"o":"m 895 613 q 860 613 822 580 q 785 547 761 492 l 550 0 q 549 -4 540 -4 q 532 -4 531 0 l 438 455 l 225 0 q 224 -4 215 -4 q 207 -4 206 0 l 135 544 q 129 587 118 600 q 106 613 80 613 q 77 613 77 619 q 77 625 80 625 q 91 625 105 624 q 119 622 145 622 q 208 622 250 624 q 261 625 278 625 q 281 625 281 619 q 281 613 278 613 q 253 613 244 607 q 235 601 235 581 q 235 563 241 522 l 284 190 l 489 625 q 491 628 499 628 q 507 628 508 625 l 601 183 l 731 490 q 751 536 751 569 q 751 613 712 613 q 710 613 710 619 q 710 625 712 625 l 754 624 q 786 622 814 622 q 832 622 856 624 l 895 625 q 897 625 897 619 q 897 613 895 613 z"},"A":{"x_min":0,"x_max":605,"ha":605,"o":"m 573 0 q 557 0 523 2 q 485 4 462 4 q 440 4 404 2 q 372 0 356 0 q 352 0 352 6 q 352 12 356 12 q 386 12 399 21 q 412 30 412 52 q 412 68 408 84 l 365 295 l 221 295 l 130 129 q 104 82 104 56 q 104 33 123 22 q 142 12 181 12 q 185 12 184 6 q 184 0 180 0 q 167 0 129 2 q 83 4 58 4 q 37 4 9 2 q -19 0 -34 0 q -38 0 -38 6 q -38 12 -34 12 q -6 12 32 44 q 70 76 103 136 l 382 634 q 384 637 390 637 q 393 637 396 636 q 399 635 400 633 l 509 84 q 515 51 520 38 q 524 25 536 18 q 548 12 573 12 q 577 12 577 6 q 577 0 573 0 z m 237 323 l 360 323 l 327 487 z"},"f":{"x_min":0,"x_max":268,"ha":268,"o":"m 413 675 q 413 653 399 640 q 385 627 364 627 q 336 627 326 640 q 317 653 314 675 q 311 690 307 698 q 303 705 292 705 q 260 705 238 640 q 215 576 195 439 l 186 380 q 226 382 243 384 l 281 386 q 285 386 287 382 q 289 378 288 374 q 285 364 275 352 q 265 339 256 339 q 254 339 232 342 q 210 346 182 349 l 127 -21 q 113 -118 92 -173 q 72 -228 42 -252 q 12 -275 -35 -275 q -76 -275 -100 -260 q -124 -246 -124 -224 q -124 -202 -110 -190 q -97 -178 -78 -178 q -54 -178 -46 -190 q -37 -202 -33 -225 q -30 -241 -26 -248 q -23 -255 -13 -255 q -3 -255 4 -240 q 10 -224 18 -184 q 25 -144 39 -47 l 90 306 q 92 317 92 332 q 92 350 82 354 q 72 359 41 359 q 38 359 38 366 q 38 375 41 375 q 74 375 88 384 q 102 393 106 418 q 126 541 152 606 q 179 672 219 699 q 259 726 324 726 q 365 726 389 712 q 413 697 413 675 z"},"Q":{"x_min":0,"x_max":655,"ha":655,"o":"m 701 -185 q 658 -200 627 -200 q 553 -200 484 -148 q 416 -97 364 -1 q 322 -12 281 -12 q 210 -12 158 20 q 107 53 80 110 q 53 167 53 239 q 53 269 60 313 q 76 405 126 478 q 177 552 252 594 q 327 636 411 636 q 483 636 536 604 q 588 572 616 516 q 644 459 644 386 q 644 348 637 313 q 621 223 574 152 q 526 82 458 40 q 480 -21 518 -71 q 557 -121 598 -150 q 638 -178 665 -178 q 684 -178 697 -174 q 700 -173 702 -178 q 703 -184 701 -185 z m 165 270 q 165 160 206 87 q 248 14 324 14 q 395 14 450 80 q 504 147 523 260 q 531 304 531 357 q 531 468 489 540 q 447 612 372 612 q 300 612 246 546 q 192 479 173 366 q 165 313 165 270 z"},"w":{"x_min":0,"x_max":628,"ha":628,"o":"m 594 314 q 594 287 592 270 q 585 196 554 130 q 522 65 476 26 q 431 -13 386 -13 q 330 -13 302 48 q 246 -13 189 -13 q 144 -13 120 16 q 95 44 95 94 q 95 111 98 130 q 109 198 159 282 q 168 296 168 303 q 168 310 156 310 l 108 310 q 73 310 57 300 q 41 290 33 267 q 31 263 27 263 q 24 263 22 265 q 20 267 21 270 q 37 317 50 341 q 62 365 80 376 q 97 387 126 387 l 219 387 q 230 387 230 383 q 230 380 227 375 q 206 326 188 274 q 171 223 166 189 q 164 178 164 159 q 164 115 184 90 q 205 64 239 64 q 264 64 290 85 q 283 116 283 160 q 283 210 291 255 q 304 326 325 359 q 346 392 377 392 q 418 392 418 334 q 418 317 415 294 q 408 246 391 198 q 374 150 349 109 q 382 64 435 64 q 474 64 506 102 q 537 139 544 199 q 545 206 545 219 q 545 243 537 260 q 529 276 511 296 q 498 310 492 322 q 485 333 485 347 q 485 371 500 384 q 516 396 540 396 q 567 396 580 378 q 594 360 594 314 z m 312 227 q 312 179 333 135 q 354 167 368 203 q 381 239 381 267 q 381 303 352 303 q 339 303 330 294 q 320 285 315 262 q 312 246 312 227 z"},"-":{"x_min":0,"x_max":305,"ha":305,"o":"m 27 202 q 27 215 29 215 l 278 262 q 281 263 283 250 q 285 238 285 226 q 285 211 282 211 l 34 164 q 31 163 29 176 q 27 189 27 202 z"},"E":{"x_min":0,"x_max":531,"ha":531,"o":"m 525 616 l 504 482 q 504 479 500 479 q 497 479 494 480 q 492 482 492 483 q 488 538 453 571 q 418 604 363 604 l 345 604 q 316 604 303 600 q 290 595 284 583 q 279 571 274 543 l 238 339 l 351 339 q 397 339 422 356 q 446 374 455 415 q 456 420 462 420 q 468 419 467 414 q 463 386 455 352 q 455 348 450 325 q 447 307 443 278 q 441 267 439 253 q 437 239 434 222 q 433 218 427 218 q 421 219 422 223 q 424 237 424 243 q 424 276 403 294 q 382 311 344 311 l 233 311 l 193 85 q 190 67 190 55 q 190 35 201 28 q 212 21 241 21 l 267 21 q 325 21 381 58 q 437 96 474 159 q 475 162 481 160 q 487 159 485 157 q 469 105 451 15 q 449 6 446 3 q 443 0 435 0 l 20 0 q 17 0 17 6 q 17 12 20 12 q 48 12 62 17 q 75 22 82 36 q 88 50 94 81 l 175 544 q 179 563 179 578 q 179 599 168 606 q 156 613 126 613 q 124 613 124 619 q 124 625 126 625 l 519 625 q 527 625 525 616 z"},"s":{"x_min":0,"x_max":316,"ha":316,"o":"m 5 54 q 5 77 18 90 q 31 102 50 102 q 67 102 77 93 q 87 84 100 64 q 113 43 124 33 q 136 23 156 23 q 173 23 182 32 q 190 42 193 63 q 194 67 194 75 q 194 104 177 125 q 160 146 124 174 q 88 204 70 226 q 53 247 53 277 q 53 283 55 295 q 60 320 80 343 q 101 366 134 381 q 166 396 204 396 q 252 396 278 380 q 305 364 302 336 q 299 317 286 306 q 272 295 257 295 q 236 295 226 304 q 216 314 208 332 q 199 350 190 359 q 181 368 161 368 q 145 368 136 358 q 127 349 125 337 q 124 333 124 325 q 124 299 141 279 q 158 259 193 231 q 231 200 249 178 q 267 155 267 125 q 267 120 265 108 q 260 81 239 54 q 218 26 184 8 q 149 -11 108 -11 q 65 -11 35 8 q 5 27 5 54 z"},">":{"x_min":0,"x_max":407,"ha":407,"o":"m 376 189 q 376 175 371 172 l 37 25 q 34 24 32 30 q 30 36 30 45 q 30 54 32 63 q 34 72 37 73 l 309 189 l 37 305 q 34 307 32 316 q 30 324 30 333 q 30 343 32 350 q 34 356 37 354 l 371 206 q 376 204 376 189 z"},"l":{"x_min":0,"x_max":247,"ha":247,"o":"m 46 48 q 46 68 50 89 l 142 589 q 145 609 145 622 q 145 651 126 651 q 114 651 84 637 l 83 637 q 78 637 77 642 q 76 648 80 649 l 235 725 l 237 725 q 241 725 244 722 q 248 719 247 717 l 135 89 q 132 74 132 64 q 132 42 147 42 q 157 42 170 51 q 182 60 200 77 q 202 79 204 79 q 207 79 209 76 q 211 72 208 69 q 174 29 148 10 q 122 -9 94 -9 q 46 -9 46 48 z"},"8":{"x_min":0,"x_max":454,"ha":454,"o":"m 324 358 q 359 325 378 304 q 397 284 410 256 q 424 227 424 193 q 424 178 421 161 q 412 110 380 70 q 347 31 299 9 q 251 -13 196 -13 q 149 -13 111 6 q 73 24 51 56 q 29 89 29 130 q 29 197 82 260 q 135 323 204 357 q 174 387 158 416 q 141 446 141 483 q 141 491 143 509 q 154 576 204 606 q 255 636 315 636 q 373 636 408 608 q 442 580 442 533 q 442 520 439 506 q 430 464 400 426 q 369 389 324 358 z m 351 544 q 351 615 301 615 q 268 615 250 588 q 231 562 231 516 q 231 476 250 444 q 269 411 304 377 q 337 425 347 495 q 351 519 351 544 z m 325 161 q 325 200 310 231 q 295 262 277 282 q 259 303 219 342 q 153 287 136 185 q 131 155 131 132 q 131 76 153 42 q 175 7 213 7 q 252 7 283 40 q 314 73 323 131 q 325 141 325 161 z"},"\\":{"x_min":0,"x_max":305,"ha":305,"o":"m 110 723 q 109 727 119 730 q 129 733 140 733 q 153 733 153 729 l 226 -158 q 227 -162 217 -164 q 207 -167 196 -167 q 183 -167 182 -163 z"},"e":{"x_min":0,"x_max":357,"ha":357,"o":"m 350 350 q 350 305 284 266 q 217 226 123 208 q 120 186 120 165 q 120 105 145 68 q 170 32 219 32 q 240 32 264 40 q 289 47 309 63 l 310 63 q 313 63 316 60 q 318 57 316 55 q 280 20 240 4 q 200 -12 160 -12 q 91 -12 56 30 q 22 72 22 136 q 22 158 27 185 q 37 239 72 288 q 106 337 158 368 q 210 399 270 399 q 308 399 329 386 q 350 373 350 350 z m 250 336 q 250 353 242 362 q 233 372 218 372 q 186 372 162 331 q 137 290 125 224 q 240 254 249 324 q 250 328 250 336 z"},"b":{"x_min":0,"x_max":451,"ha":451,"o":"m 435 290 q 435 272 432 251 q 417 170 370 110 q 323 50 264 18 q 204 -13 154 -13 q 101 -13 72 8 q 42 30 42 68 q 42 75 44 87 l 136 589 q 139 609 139 622 q 139 651 120 651 q 108 651 78 637 l 77 637 q 73 637 72 642 q 70 648 74 649 l 229 725 l 231 725 q 235 725 238 722 q 242 719 241 717 l 155 233 q 190 308 242 354 q 295 399 352 399 q 391 399 413 370 q 435 340 435 290 z m 338 267 q 338 297 328 314 q 317 332 295 332 q 240 332 195 266 q 150 201 131 96 q 130 91 130 80 q 130 52 148 34 q 165 15 191 15 q 221 15 250 40 q 279 64 301 110 q 323 157 333 220 q 338 241 338 267 z"},"%":{"x_min":0,"x_max":529,"ha":529,"o":"m 72 403 q 72 443 90 479 q 109 515 140 537 q 171 559 206 559 q 246 559 269 531 q 292 503 292 459 q 292 444 289 429 q 279 375 242 338 q 206 302 160 302 q 120 302 96 330 q 72 358 72 403 z m 43 9 l 473 553 q 475 557 488 546 q 502 535 499 532 l 70 -11 q 68 -13 54 -3 q 41 7 43 9 z m 216 422 q 220 450 220 477 q 220 507 214 523 q 208 539 198 539 q 176 539 164 512 q 152 484 146 435 q 143 410 143 387 q 143 357 150 340 q 156 322 168 322 q 189 322 200 348 q 210 373 216 422 z m 266 95 q 266 135 284 171 q 303 207 334 229 q 365 251 400 251 q 440 251 463 224 q 486 196 486 152 q 486 137 483 122 q 473 67 436 30 q 400 -6 354 -6 q 314 -6 290 22 q 266 50 266 95 z m 411 115 q 415 155 415 168 q 415 199 409 216 q 403 232 392 232 q 370 232 358 204 q 346 176 340 127 q 337 102 337 79 q 337 49 344 32 q 350 14 363 14 q 384 14 394 40 q 405 66 411 115 z"},"m":{"x_min":0,"x_max":685,"ha":685,"o":"m 660 79 q 663 79 665 76 q 667 72 664 69 q 630 29 604 10 q 578 -9 550 -9 q 502 -9 502 48 q 502 68 506 89 l 536 248 q 541 278 541 294 q 541 342 512 342 q 488 342 461 310 q 434 277 409 212 q 384 147 366 56 l 358 12 q 356 3 342 -2 q 328 -8 302 -8 q 269 -8 269 0 l 273 21 q 283 68 284 74 l 317 250 q 322 278 322 293 q 322 318 314 330 q 305 342 290 342 q 265 342 237 306 q 209 271 184 204 q 159 136 142 45 l 136 12 q 131 -8 80 -8 q 47 -8 47 0 l 51 21 q 61 68 62 74 l 103 297 q 105 306 105 319 q 105 346 88 346 q 67 346 30 306 q 29 305 27 305 q 24 305 22 308 q 20 312 22 315 q 58 357 86 376 q 115 395 144 395 q 191 395 191 342 q 191 327 188 309 l 173 225 q 206 308 250 354 q 294 399 343 399 q 375 399 392 378 q 409 358 409 317 q 409 299 404 269 l 397 228 q 430 310 474 354 q 517 399 564 399 q 628 399 628 318 q 628 291 623 267 l 591 89 q 588 74 588 65 q 588 42 604 42 q 614 42 626 50 q 637 59 656 77 q 658 79 660 79 z"},"#":{"x_min":0,"x_max":444,"ha":444,"o":"m 427 300 q 427 271 423 271 l 345 271 l 294 119 l 358 119 q 361 119 361 101 q 361 91 360 82 q 358 73 357 73 l 278 73 l 226 -83 q 225 -87 205 -80 q 185 -74 186 -70 l 234 73 l 127 73 l 75 -83 q 74 -87 54 -80 q 34 -74 35 -70 l 83 73 l 22 73 q 19 73 19 96 q 19 119 22 119 l 98 119 l 149 271 l 89 271 q 88 271 86 278 q 85 286 85 295 q 85 303 86 310 q 88 318 89 318 l 165 318 l 221 487 q 222 491 242 483 q 262 475 261 471 l 210 318 l 316 318 l 372 487 q 373 491 393 483 q 413 475 412 471 l 361 318 l 425 318 q 427 318 427 300 z m 249 119 l 300 271 l 194 271 l 143 119 z"},",":{"x_min":0,"x_max":234,"ha":234,"o":"m 146 32 q 146 12 142 -5 q 134 -44 102 -87 q 70 -130 27 -160 q 26 -161 24 -161 q 21 -161 19 -157 q 17 -153 20 -151 q 87 -92 98 -25 q 100 -15 100 -12 q 100 -7 98 -1 q 91 -8 74 -8 q 49 -8 35 8 q 21 24 21 46 q 21 70 36 87 q 52 104 82 104 q 113 104 130 85 q 146 66 146 32 z"},"n":{"x_min":0,"x_max":475,"ha":475,"o":"m 449 79 q 452 79 454 76 q 456 72 454 69 q 420 29 394 10 q 367 -9 339 -9 q 291 -9 291 47 q 291 62 296 89 l 325 248 q 330 276 330 293 q 330 342 298 342 q 270 342 240 306 q 210 269 184 199 q 157 129 139 31 l 136 12 q 131 -8 80 -8 q 47 -8 47 0 l 51 21 q 61 68 62 74 l 103 297 q 105 306 105 319 q 105 346 88 346 q 67 346 30 306 q 29 305 27 305 q 24 305 22 308 q 20 312 22 315 q 58 357 86 376 q 115 395 144 395 q 191 395 191 342 q 191 327 188 309 l 172 218 q 207 305 252 352 q 298 399 349 399 q 418 399 418 316 q 418 297 413 267 l 380 89 q 377 74 377 65 q 377 42 393 42 q 403 42 416 51 q 428 60 446 77 q 448 79 449 79 z"},"h":{"x_min":0,"x_max":455,"ha":455,"o":"m 429 79 q 432 79 434 76 q 437 72 434 69 q 400 29 374 10 q 347 -9 319 -9 q 271 -9 271 47 q 271 62 276 89 l 305 248 q 310 276 310 293 q 310 342 278 342 q 250 342 220 306 q 191 271 164 202 q 138 133 120 37 l 116 12 q 111 -8 60 -8 q 27 -8 27 0 l 31 21 q 41 68 42 74 l 136 589 q 139 609 139 622 q 139 651 120 651 q 108 651 78 637 l 77 637 q 73 637 72 642 q 70 648 74 649 l 229 725 l 231 725 q 235 725 238 722 q 242 719 241 717 l 153 220 q 187 305 232 352 q 278 399 329 399 q 398 399 398 316 q 398 297 393 267 l 360 89 q 357 74 357 65 q 357 42 373 42 q 383 42 396 51 q 408 60 426 77 q 428 79 429 79 z"},"z":{"x_min":0,"x_max":344,"ha":344,"o":"m 348 396 q 351 396 356 392 q 361 387 359 385 l 103 99 l 105 99 q 129 99 163 93 q 197 87 202 86 q 260 76 275 76 q 291 76 302 86 q 312 95 320 115 q 321 116 324 116 q 327 116 330 114 q 332 113 331 111 q 317 60 306 36 q 296 11 284 3 q 272 -5 253 -5 q 229 -5 196 1 q 163 7 155 8 q 93 21 56 22 q 40 22 28 16 q 16 10 1 -7 q -1 -8 -8 -2 q -14 4 -12 6 l 245 290 l 243 290 q 222 290 161 303 q 111 313 97 313 q 78 313 66 304 q 55 296 47 276 q 46 273 42 273 q 39 273 37 275 q 35 277 36 281 q 53 336 64 359 q 75 382 88 388 q 100 395 125 394 q 146 393 202 381 q 261 369 291 367 q 307 367 319 373 q 331 379 346 396 z"},"B":{"x_min":0,"x_max":561,"ha":561,"o":"m 523 207 q 523 192 520 175 q 510 125 472 84 q 435 43 379 20 q 323 -4 260 -4 q 233 -4 200 -1 q 187 0 170 1 q 152 2 131 2 l 63 1 q 45 0 15 0 q 13 0 13 6 q 13 12 15 12 q 54 12 70 26 q 87 41 95 84 l 177 547 q 180 565 180 576 q 180 599 168 606 q 156 613 125 613 q 122 613 122 617 q 122 620 123 622 q 124 624 125 625 l 173 624 q 213 622 237 622 q 264 622 291 625 q 300 626 318 627 q 336 628 350 628 q 434 628 480 600 q 525 572 525 520 q 525 508 522 494 q 512 448 474 410 q 436 373 373 350 q 444 340 484 302 q 523 263 523 207 z m 275 538 l 242 352 l 277 351 q 333 351 372 392 q 412 433 425 496 q 429 513 429 530 q 429 569 405 588 q 381 608 335 608 q 308 608 294 592 q 281 576 275 538 z m 419 211 q 419 265 386 294 q 353 324 285 324 q 257 324 236 322 l 193 77 q 190 62 190 51 q 190 33 202 26 q 213 18 244 18 q 316 18 357 55 q 398 92 413 163 q 419 189 419 211 z"},"K":{"x_min":0,"x_max":625,"ha":625,"o":"m 658 613 q 618 613 566 588 q 513 562 464 518 l 343 406 l 437 216 q 488 115 510 76 q 532 38 548 25 q 564 12 589 12 q 592 12 592 6 q 592 0 589 0 l 495 0 q 442 0 430 6 q 417 12 396 64 q 375 117 353 160 l 266 335 l 224 296 l 186 81 q 180 45 180 39 q 180 23 191 18 q 202 12 235 12 q 238 12 238 6 q 238 0 235 0 q 205 0 190 1 l 122 2 l 58 1 q 42 0 13 0 q 10 0 10 6 q 10 12 13 12 q 41 12 54 17 q 68 22 75 36 q 82 50 88 81 l 170 544 q 174 570 174 577 q 174 598 162 606 q 150 613 120 613 q 118 613 118 619 q 118 625 120 625 l 165 624 q 205 622 229 622 q 253 622 295 624 l 342 625 q 344 625 344 619 q 344 613 342 613 q 315 613 301 607 q 287 601 280 586 q 273 572 268 542 l 230 328 l 439 524 q 455 538 463 553 q 471 568 471 581 q 471 596 460 604 q 450 613 430 613 q 428 613 428 619 q 428 625 430 625 l 479 624 q 531 622 560 622 q 590 622 624 624 l 658 625 q 661 625 661 619 q 661 613 658 613 z"},"R":{"x_min":0,"x_max":635,"ha":635,"o":"m 611 0 l 460 0 q 438 0 398 80 q 359 160 311 323 q 284 316 253 316 q 247 316 241 318 l 199 81 q 195 62 195 47 q 195 26 207 19 q 219 12 250 12 q 254 12 254 6 q 254 0 251 0 q 220 0 203 1 l 136 2 l 67 1 q 50 0 19 0 q 15 0 15 6 q 15 12 19 12 q 49 12 64 18 q 79 23 87 38 q 95 52 101 81 l 182 544 q 186 563 186 578 q 186 599 174 606 q 162 613 130 613 q 126 613 126 619 q 126 625 130 625 l 178 624 q 218 622 244 622 q 261 622 276 623 q 290 624 301 625 q 330 628 351 628 q 432 628 474 602 q 515 577 515 530 q 515 517 512 503 q 502 459 470 420 q 437 380 390 353 q 439 224 476 150 q 512 77 544 44 q 576 12 611 12 q 614 12 614 6 q 614 0 611 0 z m 273 343 q 333 343 364 372 q 395 401 405 469 q 409 501 409 513 q 409 562 390 584 q 372 607 342 607 q 318 607 308 604 q 298 600 292 588 q 287 575 281 542 l 246 346 q 258 343 273 343 z"},"T":{"x_min":0,"x_max":553,"ha":553,"o":"m 113 12 q 150 12 168 17 q 187 22 196 36 q 205 51 211 81 l 292 544 q 296 568 296 574 q 296 590 288 596 q 280 602 261 602 l 249 602 q 218 602 184 580 q 150 559 123 524 q 96 488 84 446 q 83 443 78 444 q 72 445 73 448 q 81 477 97 544 q 113 611 120 647 q 121 650 127 650 q 133 649 132 646 q 129 625 171 625 q 245 622 354 622 q 405 622 467 624 l 530 625 q 560 625 575 630 q 590 635 596 650 q 598 653 603 652 q 608 652 607 648 q 598 616 582 544 q 567 473 564 448 q 563 444 557 444 q 551 445 552 449 q 555 466 555 481 q 555 533 526 568 q 497 602 451 602 l 440 602 q 414 602 406 590 q 397 579 391 542 l 310 81 q 306 57 306 50 q 306 27 322 20 q 339 12 384 12 q 386 12 386 6 q 386 0 384 0 q 349 0 329 1 l 248 2 l 170 1 q 150 0 113 0 q 111 0 111 6 q 111 12 113 12 z"},"P":{"x_min":0,"x_max":532,"ha":532,"o":"m 15 12 q 43 12 57 17 q 71 22 78 36 q 85 51 90 81 l 172 544 q 176 570 176 577 q 176 599 164 606 q 153 613 123 613 q 120 613 120 619 q 120 625 123 625 l 167 624 q 207 622 232 622 q 252 622 280 625 q 349 628 352 628 q 438 628 490 592 q 541 557 541 489 q 541 473 538 453 q 526 390 486 346 q 445 303 392 282 q 340 262 291 262 q 266 262 250 267 q 249 267 249 270 q 249 275 251 282 q 253 288 256 287 q 268 283 285 283 q 337 283 377 320 q 417 358 428 433 q 432 463 432 476 q 432 537 404 572 q 375 607 333 607 q 301 607 289 594 q 277 582 269 542 l 188 81 q 184 55 184 48 q 184 26 196 19 q 207 12 237 12 q 240 12 240 6 q 240 0 237 0 q 208 0 191 1 l 124 2 l 60 1 q 44 0 15 0 q 13 0 13 6 q 13 12 15 12 z"},"|":{"x_min":0,"x_max":152,"ha":152,"o":"m 20 -160 q 11 -160 2 -158 q -6 -155 -5 -151 l 150 731 q 151 736 167 736 q 177 736 186 734 q 194 731 193 727 l 37 -154 q 36 -160 20 -160 z"},"t":{"x_min":0,"x_max":301,"ha":301,"o":"m 311 377 q 311 369 300 353 q 288 337 278 337 q 275 337 246 342 q 216 347 179 349 l 137 111 q 135 95 135 89 q 135 65 148 54 q 160 43 186 43 q 224 43 270 80 l 271 80 q 275 80 278 77 q 281 74 278 71 q 232 27 196 8 q 161 -12 126 -12 q 45 -12 45 61 q 45 76 48 94 l 87 306 q 90 323 90 334 q 90 349 82 354 q 74 359 53 359 q 50 359 50 366 q 50 375 53 375 q 133 375 180 463 q 182 466 187 466 q 192 466 196 464 q 200 462 199 460 l 184 378 q 212 379 232 380 q 252 382 266 383 q 292 386 304 386 q 311 386 311 377 z"},"M":{"x_min":0,"x_max":742,"ha":742,"o":"m 770 613 q 738 613 723 600 q 708 586 702 546 l 633 81 q 630 63 630 50 q 630 27 642 20 q 653 12 683 12 q 686 12 686 6 q 686 0 683 0 q 655 0 638 1 l 572 2 l 507 1 q 490 0 461 0 q 458 0 458 6 q 458 12 461 12 q 489 12 503 17 q 517 22 524 36 q 530 50 535 81 l 606 557 l 335 7 q 333 3 328 3 q 322 3 320 8 l 210 533 l 137 130 q 133 110 133 89 q 133 52 148 32 q 162 12 189 12 q 192 12 192 6 q 192 0 189 0 q 166 0 153 1 l 99 2 l 52 1 q 39 0 13 0 q 10 0 10 6 q 10 12 13 12 q 47 12 73 43 q 99 74 109 127 l 193 578 q 171 613 122 613 q 119 613 119 619 q 119 625 122 625 q 137 625 146 624 l 186 623 l 245 624 q 256 625 270 625 q 281 625 288 615 q 294 605 301 573 l 388 160 l 602 600 q 607 611 617 618 q 627 625 639 625 q 653 625 662 624 l 704 623 l 743 624 q 752 625 770 625 q 772 625 772 619 q 772 613 770 613 z"},"g":{"x_min":0,"x_max":425,"ha":425,"o":"m 400 409 q 403 409 406 407 q 409 405 408 404 l 330 -33 q 308 -151 246 -216 q 183 -281 92 -281 q 39 -281 6 -261 q -28 -241 -28 -208 q -28 -182 -12 -168 q 3 -154 23 -154 q 44 -154 52 -166 q 61 -179 67 -204 q 74 -232 84 -246 q 95 -261 123 -261 q 160 -261 188 -218 q 217 -174 239 -56 l 276 158 q 238 77 186 32 q 133 -13 83 -13 q 52 -13 34 6 q 16 25 16 63 q 16 130 60 210 q 105 289 170 344 q 236 399 294 399 q 312 399 332 392 q 351 386 365 373 q 384 387 396 407 q 398 409 400 409 z m 294 253 q 297 270 297 283 q 297 315 282 332 q 268 350 242 350 q 196 350 160 300 q 125 251 111 172 q 106 140 106 124 q 106 91 117 76 q 128 60 147 60 q 177 60 208 92 q 240 123 264 168 q 287 214 294 253 z"},"j":{"x_min":0,"x_max":249,"ha":249,"o":"m 132 557 q 132 581 148 596 q 163 611 189 611 q 215 611 230 596 q 244 581 244 557 q 244 529 230 514 q 215 499 189 499 q 163 499 148 514 q 132 530 132 557 z m -110 -224 q -110 -202 -96 -190 q -83 -178 -64 -178 q -40 -178 -32 -190 q -23 -202 -19 -225 q -16 -241 -12 -248 q -9 -255 1 -255 q 11 -255 17 -241 q 23 -227 32 -184 q 40 -140 51 -76 l 56 -47 l 117 297 q 119 306 119 319 q 119 346 102 346 q 81 346 44 306 q 43 305 41 305 q 38 305 36 308 q 34 312 36 315 q 72 357 100 376 q 129 395 158 395 q 205 395 205 342 q 205 327 202 309 l 145 -21 q 128 -117 107 -172 q 86 -226 56 -250 q 25 -275 -21 -275 q -62 -275 -86 -260 q -110 -246 -110 -224 z"},"i":{"x_min":0,"x_max":247,"ha":247,"o":"m 116 557 q 116 581 132 596 q 147 611 173 611 q 199 611 214 596 q 228 581 228 557 q 228 529 214 514 q 199 499 173 499 q 147 499 132 514 q 116 530 116 557 z m 58 47 q 58 62 63 89 l 104 297 q 107 311 107 320 q 107 333 102 340 q 97 346 89 346 q 68 346 32 306 q 31 305 29 305 q 25 305 23 308 q 21 312 23 315 q 59 357 88 376 q 117 395 145 395 q 193 395 193 343 q 193 326 189 309 l 147 89 q 145 80 145 66 q 145 42 160 42 q 170 42 182 51 q 195 60 213 77 q 215 79 217 79 q 220 79 222 76 q 224 72 221 69 q 187 29 160 10 q 134 -9 106 -9 q 58 -9 58 47 z"},"y":{"x_min":0,"x_max":450,"ha":450,"o":"m 430 388 q 430 378 415 312 l 345 -70 q 328 -164 268 -222 q 209 -281 124 -281 q 72 -281 39 -262 q 6 -243 6 -215 q 6 -208 7 -205 q 12 -179 26 -166 q 40 -154 58 -154 q 79 -154 88 -166 q 96 -178 102 -202 q 109 -230 121 -245 q 133 -260 164 -260 q 194 -260 216 -224 q 239 -188 256 -94 l 302 164 q 268 79 223 33 q 178 -13 127 -13 q 58 -13 58 69 q 58 95 63 119 l 98 297 q 101 312 101 321 q 101 344 85 344 q 75 344 64 336 q 52 327 33 309 q 31 307 29 307 q 26 307 24 310 q 22 314 25 317 q 59 357 84 376 q 110 395 138 395 q 187 395 187 338 q 187 324 182 297 l 151 138 q 146 116 146 93 q 146 44 178 44 q 204 44 232 78 q 261 111 287 175 q 313 239 332 327 l 342 380 q 343 386 355 390 q 367 394 388 394 q 415 394 422 392 q 430 391 430 388 z"},"@":{"x_min":0,"x_max":729,"ha":729,"o":"m 399 113 q 399 127 404 147 l 406 155 q 372 109 333 82 q 294 54 261 54 q 236 54 220 70 q 203 86 203 120 q 203 127 205 143 q 213 197 247 247 q 281 297 328 328 q 374 360 415 360 q 430 360 444 354 q 457 348 465 336 q 478 341 488 349 q 497 357 499 367 q 501 369 506 369 q 510 369 513 368 q 516 367 517 366 l 476 142 q 474 134 474 119 q 474 82 511 82 q 534 82 560 100 q 585 117 602 152 q 619 187 619 236 q 619 303 586 359 q 554 415 497 448 q 440 480 370 480 q 294 480 238 442 q 183 405 154 341 q 124 277 124 201 q 124 119 158 58 q 192 -4 254 -38 q 316 -71 399 -71 q 446 -71 486 -60 q 525 -49 566 -20 l 567 -20 q 570 -20 572 -24 q 574 -27 572 -28 q 520 -72 469 -89 q 418 -106 363 -106 q 278 -106 210 -72 q 141 -39 102 24 q 62 88 62 175 q 62 270 110 345 q 157 420 236 462 q 315 503 405 503 q 485 503 546 470 q 607 438 640 384 q 674 331 674 268 q 674 210 646 162 q 618 113 570 84 q 521 56 464 56 q 399 56 399 113 z m 428 275 q 430 289 430 295 q 430 314 424 326 q 417 337 405 337 q 369 337 338 294 q 306 251 294 194 q 288 168 288 154 q 288 118 311 118 q 330 118 354 142 q 379 165 400 202 q 421 239 428 275 z"},".":{"x_min":0,"x_max":207,"ha":207,"o":"m 21 49 q 21 74 36 88 q 52 103 78 103 q 104 103 118 88 q 133 74 133 49 q 133 22 118 7 q 104 -8 78 -8 q 52 -8 36 7 q 21 22 21 49 z"},"p":{"x_min":0,"x_max":405,"ha":405,"o":"m 390 288 q 390 271 387 253 q 377 186 340 128 q 304 69 252 34 q 199 -1 145 -1 q 129 -1 105 1 l 73 -178 q 69 -202 69 -207 q 69 -222 76 -228 q 83 -235 99 -235 q 104 -235 120 -233 q 124 -233 126 -238 q 127 -243 123 -244 l -67 -275 q -70 -276 -72 -270 q -73 -264 -69 -263 q -49 -258 -40 -252 q -31 -245 -26 -231 q -21 -217 -15 -185 l 71 294 q 50 282 20 260 q 19 259 17 259 q 13 259 11 263 q 9 267 13 270 q 53 302 74 316 l 87 386 q 87 388 104 398 q 132 415 151 430 q 170 445 175 464 q 176 468 182 467 q 187 466 186 462 l 169 367 q 229 393 285 393 q 337 393 364 366 q 390 339 390 288 z m 299 247 q 299 290 280 317 q 260 344 216 344 q 189 344 164 337 l 112 43 q 145 29 182 29 q 230 29 258 80 q 286 132 297 220 q 299 238 299 247 z"},"X":{"x_min":0,"x_max":580,"ha":580,"o":"m 627 613 q 595 613 554 586 q 513 558 469 502 l 352 353 l 455 83 q 470 44 488 28 q 507 12 538 12 q 542 12 542 6 q 542 0 538 0 q 512 0 498 1 l 444 2 l 366 1 q 345 0 313 0 q 309 0 310 6 q 310 12 313 12 q 331 12 346 20 q 361 27 361 41 q 361 43 359 51 l 276 270 l 146 103 q 118 68 118 45 q 118 12 175 12 q 179 12 179 6 q 179 0 175 0 q 144 0 123 1 l 46 2 l 6 1 q -7 0 -32 0 q -36 0 -36 6 q -36 12 -32 12 q 0 12 41 40 q 82 67 126 123 l 265 298 l 172 542 q 158 580 141 596 q 124 613 99 613 q 96 613 96 619 q 96 625 99 625 q 111 625 137 623 l 173 622 q 203 622 251 624 l 301 625 q 304 625 304 619 q 304 613 301 613 q 287 613 276 606 q 265 599 265 586 q 265 581 268 573 l 341 382 l 449 522 q 478 560 478 581 q 478 597 462 605 q 446 613 420 613 q 416 613 416 619 q 416 625 420 625 l 471 624 q 523 622 550 622 q 564 622 590 624 l 627 625 q 632 625 632 619 q 632 613 627 613 z"},"*":{"x_min":0,"x_max":448,"ha":448,"o":"m 228 661 q 225 672 264 682 q 304 693 331 693 q 344 693 343 689 l 276 529 q 275 526 271 526 q 267 526 265 529 z m 109 516 q 100 516 100 546 q 100 574 106 606 q 113 638 118 634 l 247 522 q 248 521 248 519 q 248 516 246 513 q 245 510 243 511 z m 291 503 q 289 503 288 508 q 286 512 289 513 l 399 588 q 407 594 424 570 q 442 545 454 516 q 467 488 461 488 z m 199 355 q 185 355 159 366 q 133 376 114 388 q 94 401 98 404 l 244 491 q 245 492 247 492 q 249 492 252 490 q 255 487 254 485 l 208 359 q 207 355 199 355 z m 273 481 l 273 482 q 273 484 276 486 q 279 488 281 487 l 387 405 q 395 399 376 375 q 358 351 334 330 q 311 309 310 315 z"},"Y":{"x_min":0,"x_max":535,"ha":535,"o":"m 605 613 q 542 613 469 504 l 343 313 l 302 81 q 298 62 298 47 q 298 26 312 19 q 325 12 363 12 q 366 12 366 6 q 366 0 363 0 q 331 0 313 1 l 241 2 l 167 1 q 149 0 117 0 q 113 0 113 6 q 113 12 117 12 q 150 12 166 17 q 182 22 190 36 q 199 51 204 81 l 241 301 l 139 542 q 123 579 106 596 q 90 613 70 613 q 66 613 66 619 q 66 625 70 625 l 117 624 q 151 622 167 622 q 190 622 236 624 l 282 625 q 286 625 286 619 q 286 613 282 613 q 256 613 244 608 q 233 604 233 592 q 233 582 237 573 l 333 343 l 450 526 q 467 552 467 573 q 467 591 454 602 q 442 613 420 613 q 416 613 416 619 q 416 625 420 625 l 469 624 q 513 622 538 622 q 553 622 573 624 l 605 625 q 608 625 608 619 q 608 613 605 613 z"},"c":{"x_min":0,"x_max":347,"ha":347,"o":"m 24 147 q 24 172 29 202 q 39 260 74 305 q 110 350 158 374 q 206 399 253 399 q 290 399 318 383 q 347 367 347 337 q 347 314 334 300 q 320 287 296 287 q 272 287 261 300 q 250 312 246 332 q 241 351 234 361 q 226 371 209 371 q 179 371 156 334 q 133 298 123 237 q 117 204 117 174 q 117 111 143 74 q 169 36 221 36 q 241 36 267 46 q 293 55 309 67 l 310 67 q 313 67 316 64 q 319 61 317 58 q 281 23 240 5 q 199 -13 160 -13 q 90 -13 57 32 q 24 78 24 147 z"},"!":{"x_min":0,"x_max":219,"ha":219,"o":"m 102 192 q 117 409 120 621 q 120 625 142 629 q 164 633 186 633 q 210 633 231 629 q 252 625 250 621 q 181 451 113 191 q 112 186 106 186 q 101 187 102 192 z m 33 49 q 33 74 48 88 q 64 103 90 103 q 116 103 130 88 q 145 74 145 49 q 145 22 130 7 q 116 -8 90 -8 q 64 -8 48 7 q 33 22 33 49 z"},"/":{"x_min":0,"x_max":305,"ha":305,"o":"m -51 -154 l 333 735 q 335 739 346 736 q 357 733 366 728 q 376 722 374 718 l -9 -170 q -11 -173 -22 -170 q -33 -168 -42 -162 q -52 -157 -51 -154 z"},"[":{"x_min":0,"x_max":253,"ha":253,"o":"m 8 -106 l 153 715 q 154 722 156 724 q 158 725 163 725 l 318 725 q 322 725 322 719 q 322 713 318 713 q 285 713 268 707 q 252 701 244 686 q 236 672 230 642 l 111 -34 q 108 -52 108 -65 q 108 -88 122 -96 q 136 -105 172 -105 q 177 -105 177 -111 q 177 -117 172 -117 l 14 -117 q 9 -117 8 -115 q 7 -113 8 -106 z"},"6":{"x_min":0,"x_max":458,"ha":458,"o":"m 47 153 q 47 184 55 226 q 73 322 126 410 q 180 497 262 558 q 343 619 439 636 q 442 637 444 632 q 446 626 442 625 q 330 583 254 478 q 179 373 158 243 q 151 196 151 155 q 151 92 167 52 q 183 11 220 11 q 288 11 310 130 q 316 165 316 198 q 316 245 303 274 q 290 304 262 304 q 237 304 212 288 q 211 287 209 287 q 206 287 204 290 q 201 293 202 295 q 220 315 247 328 q 274 340 301 340 q 360 340 390 302 q 420 264 420 206 q 420 186 415 159 q 399 78 340 32 q 282 -13 206 -13 q 125 -13 86 32 q 47 76 47 153 z"},"r":{"x_min":0,"x_max":356,"ha":356,"o":"m 366 333 q 364 318 352 305 q 340 292 322 292 q 304 292 283 309 q 276 314 269 318 q 262 322 255 322 q 238 322 213 269 q 188 216 166 142 q 143 69 133 13 l 133 12 q 131 3 117 -2 q 103 -8 77 -8 q 44 -8 44 0 q 45 7 50 30 q 56 53 60 74 l 101 297 q 103 313 103 318 q 103 346 85 346 q 65 346 28 306 q 27 305 25 305 q 21 305 19 308 q 17 312 20 315 q 56 357 84 376 q 113 395 142 395 q 167 395 178 382 q 189 368 189 342 q 189 327 186 309 l 166 199 q 225 395 297 395 q 323 395 346 376 q 370 357 366 333 z"},"2":{"x_min":0,"x_max":399,"ha":399,"o":"m -8 24 q -8 29 -6 33 q 100 149 154 214 q 208 278 241 336 q 274 394 284 453 q 288 474 288 494 q 288 572 214 572 q 170 572 139 548 q 108 523 94 485 q 93 481 88 481 q 85 481 82 484 q 80 486 81 489 q 103 556 155 596 q 207 636 271 636 q 330 636 360 603 q 390 570 390 515 q 390 503 386 475 q 377 422 348 374 q 319 326 284 288 q 248 249 190 193 q 130 135 98 98 q 95 96 101 96 q 194 96 241 102 q 288 108 308 122 q 327 137 332 167 q 332 171 337 171 q 340 171 342 169 q 345 167 344 165 l 316 7 q 315 0 306 0 l 1 0 q -2 0 -5 8 q -8 16 -8 24 z"},"{":{"x_min":0,"x_max":263,"ha":263,"o":"m 55 -32 q 55 2 68 80 q 85 174 85 215 q 85 251 72 269 q 60 287 29 298 q 27 298 27 304 q 27 311 29 311 q 63 317 83 336 q 103 354 118 398 q 132 442 147 529 q 162 615 182 656 q 201 697 233 711 q 265 725 325 725 q 328 725 328 719 q 328 713 325 713 q 271 713 254 607 q 233 493 216 440 q 198 386 169 358 q 140 329 81 305 q 135 285 156 261 q 177 237 177 195 q 177 174 172 140 q 166 105 159 66 l 147 1 q 143 -27 143 -38 q 143 -70 153 -88 q 163 -105 179 -105 q 181 -105 181 -111 q 181 -117 179 -117 q 130 -117 104 -110 q 78 -103 66 -85 q 55 -67 55 -32 z"},"9":{"x_min":0,"x_max":458,"ha":458,"o":"m 61 -1 q 172 43 247 144 q 322 246 342 380 q 348 421 348 466 q 348 530 332 572 q 315 614 277 614 q 245 614 224 582 q 202 551 191 494 q 184 460 184 423 q 184 377 198 348 q 212 319 240 319 q 264 319 289 336 l 291 337 q 294 337 297 334 q 300 331 298 329 q 257 283 196 283 q 138 283 109 321 q 80 359 80 417 q 80 437 85 464 q 102 546 162 591 q 222 636 301 636 q 377 636 416 593 q 454 550 454 473 q 454 441 446 398 q 426 294 370 208 q 315 121 234 64 q 154 6 62 -13 q 58 -14 58 -8 q 57 -3 61 -1 z"}," ":{"x_min":0,"x_max":234,"ha":234,"o":""},"I":{"x_min":0,"x_max":336,"ha":336,"o":"m 25 12 q 52 12 66 17 q 79 22 86 36 q 93 50 98 81 l 180 544 q 184 561 184 577 q 184 598 172 606 q 160 613 130 613 q 127 613 127 619 q 127 625 130 625 l 176 624 q 216 622 240 622 q 270 622 310 624 l 353 625 q 356 625 356 619 q 356 613 353 613 q 326 613 312 607 q 298 601 292 587 q 285 573 280 542 l 198 81 q 194 62 194 47 q 194 26 206 19 q 218 12 248 12 q 250 12 250 6 q 250 0 248 0 q 220 0 203 1 l 136 2 l 71 1 q 54 0 25 0 q 22 0 22 6 q 22 12 25 12 z"},"H":{"x_min":0,"x_max":675,"ha":675,"o":"m 702 613 q 675 613 662 608 q 648 602 641 588 q 634 574 628 544 l 546 81 q 543 62 543 49 q 543 27 554 20 q 566 12 596 12 q 599 12 599 6 q 599 0 596 0 q 571 0 555 1 l 487 2 l 421 1 q 404 0 374 0 q 372 0 372 6 q 372 12 374 12 q 402 12 416 17 q 429 22 436 36 q 442 50 448 81 l 488 311 l 227 311 l 186 81 q 182 62 182 47 q 182 26 194 19 q 205 12 235 12 q 238 12 238 6 q 238 0 235 0 q 206 0 189 1 l 122 2 l 58 1 q 42 0 13 0 q 10 0 10 6 q 10 12 13 12 q 41 12 54 17 q 68 22 75 36 q 82 50 88 81 l 170 544 q 174 570 174 576 q 174 597 162 605 q 150 613 120 613 q 118 613 118 619 q 118 625 120 625 l 165 624 q 205 622 229 622 q 253 622 295 624 l 342 625 q 344 625 344 619 q 344 613 342 613 q 315 613 301 607 q 287 601 280 586 q 273 572 268 542 l 232 339 l 493 339 l 529 542 q 532 562 532 575 q 532 597 521 605 q 510 613 481 613 q 478 613 478 619 q 478 625 481 625 l 526 624 q 566 622 591 622 q 616 622 656 624 l 702 625 q 704 625 704 619 q 704 613 702 613 z"},"4":{"x_min":0,"x_max":427,"ha":427,"o":"m 386 632 q 389 632 392 630 q 394 629 393 626 l 325 240 l 389 242 q 391 242 391 232 q 391 217 388 197 q 385 177 382 177 l 314 180 l 297 81 q 295 71 295 55 q 295 30 307 21 q 319 12 343 12 q 348 12 348 6 q 348 0 343 0 q 318 0 301 1 l 240 2 l 166 1 q 146 0 115 0 q 111 0 111 6 q 111 12 115 12 q 150 12 166 16 q 182 21 191 35 q 200 49 206 81 l 224 182 q 165 184 11 184 q 6 184 4 188 q 2 191 6 195 l 380 630 q 382 632 386 632 z m 234 238 l 276 478 l 78 246 q 75 243 75 240 q 75 236 82 236 q 140 236 234 238 z"},"~":{"x_min":0,"x_max":443,"ha":443,"o":"m 41 142 q 39 142 37 145 q 35 148 36 150 q 77 204 100 222 q 124 240 153 240 q 181 240 241 223 q 248 221 276 214 q 304 208 320 208 q 367 208 401 244 l 403 245 q 405 245 407 242 q 409 239 408 237 q 369 186 343 166 q 317 147 285 147 q 267 147 240 154 q 212 161 206 162 q 147 179 118 179 q 92 179 78 171 q 64 163 43 143 q 43 142 41 142 z"},"D":{"x_min":0,"x_max":636,"ha":636,"o":"m 195 -1 q 183 0 165 1 q 147 2 124 2 l 58 1 q 42 0 13 0 q 10 0 10 6 q 10 12 13 12 q 41 12 54 17 q 68 22 75 36 q 82 50 88 81 l 170 544 q 174 570 174 577 q 174 598 162 606 q 150 613 120 613 q 118 613 118 619 q 118 625 120 625 l 167 624 q 207 622 233 622 q 261 622 291 625 q 331 627 349 627 q 433 627 496 596 q 559 566 592 510 q 626 455 626 382 q 626 349 621 323 q 604 227 548 152 q 491 78 412 37 q 333 -4 251 -4 q 227 -4 195 -1 z m 508 301 q 515 340 515 385 q 515 482 473 544 q 431 607 340 607 q 304 607 289 592 q 274 578 268 542 l 188 92 q 185 76 185 64 q 185 39 199 28 q 213 16 247 16 q 343 16 414 92 q 484 167 508 301 z"},"^":{"x_min":0,"x_max":353,"ha":353,"o":"m 93 374 q 90 374 87 376 q 84 378 85 380 l 243 629 q 246 634 254 634 q 263 634 263 629 l 333 380 q 333 378 328 376 q 324 374 323 377 l 228 488 l 96 375 q 95 374 93 374 z"},"0":{"x_min":0,"x_max":474,"ha":474,"o":"m 51 201 q 51 250 62 313 q 79 408 116 482 q 152 555 204 596 q 256 637 317 637 q 390 637 428 580 q 465 522 465 424 q 465 373 454 310 q 437 214 400 141 q 364 68 312 28 q 261 -13 200 -13 q 128 -13 90 44 q 51 102 51 201 z m 347 298 q 364 400 364 479 q 364 618 304 618 q 258 618 223 536 q 188 454 166 320 q 150 221 150 151 q 150 7 214 7 q 262 7 294 81 q 325 155 347 298 z"},"F":{"x_min":0,"x_max":485,"ha":485,"o":"m 522 616 l 514 565 l 501 482 q 500 479 496 479 q 494 479 492 480 q 489 482 489 483 q 484 539 449 572 q 414 604 359 604 l 342 604 q 313 604 300 600 q 287 595 282 583 q 276 571 270 543 l 232 327 l 324 327 q 369 327 394 345 q 419 363 428 404 q 428 407 434 407 q 436 407 438 406 q 441 404 440 402 q 436 374 428 340 q 428 336 423 313 l 419 287 q 415 258 407 211 q 406 207 400 208 q 394 208 395 212 q 397 226 397 232 q 397 265 376 282 q 355 299 317 299 l 227 299 l 189 85 q 186 69 186 58 q 186 31 204 22 q 223 12 273 12 q 275 12 275 6 q 275 0 273 0 q 252 0 237 1 l 124 2 l 60 1 q 44 0 15 0 q 13 0 13 6 q 13 12 15 12 q 43 12 57 17 q 71 22 78 36 q 85 51 90 81 l 172 544 q 176 570 176 577 q 176 598 164 606 q 152 613 123 613 q 120 613 120 619 q 120 625 123 625 l 516 625 q 524 625 522 616 z"},"`":{"x_min":0,"x_max":166,"ha":166,"o":"m 111 727 q 110 734 133 734 q 155 734 180 728 q 206 722 205 716 l 181 476 q 181 474 176 473 q 172 472 172 475 z"},"k":{"x_min":0,"x_max":412,"ha":412,"o":"m 417 76 q 421 76 423 72 q 425 69 422 67 q 356 -9 317 -9 q 291 -9 272 6 q 252 20 228 58 l 170 154 q 163 166 158 171 q 152 176 145 177 l 116 12 q 111 -8 60 -8 q 27 -8 27 0 l 31 21 q 41 68 42 74 l 136 589 q 139 609 139 622 q 139 651 120 651 q 108 651 78 637 l 77 637 q 73 637 72 642 q 70 648 74 649 l 229 725 l 231 725 q 235 725 238 722 q 242 720 241 717 l 172 329 q 208 362 250 380 q 291 399 331 399 q 373 399 387 381 q 401 363 398 339 q 392 302 350 266 q 307 230 235 203 l 298 102 q 318 70 332 60 q 345 49 360 49 q 382 49 414 75 q 415 76 417 76 z m 150 205 l 149 197 q 226 215 260 244 q 295 274 295 319 q 295 356 267 356 q 227 356 195 314 q 163 273 150 205 z"},"u":{"x_min":0,"x_max":476,"ha":476,"o":"m 449 81 q 452 81 454 78 q 456 74 454 71 q 418 29 390 10 q 361 -9 332 -9 q 285 -9 285 44 q 285 59 288 77 l 304 168 q 269 81 224 34 q 178 -13 127 -13 q 58 -13 58 69 q 58 95 63 119 l 98 297 q 101 312 101 321 q 101 344 85 344 q 75 344 64 336 q 52 327 33 309 q 31 307 29 307 q 26 307 24 310 q 22 314 25 317 q 59 357 84 376 q 110 395 138 395 q 187 395 187 338 q 187 324 182 297 l 151 138 q 146 116 146 93 q 146 44 178 44 q 206 44 236 80 q 266 117 292 187 q 319 257 337 355 l 340 374 q 345 394 396 394 q 413 394 421 392 q 429 389 429 386 l 425 365 q 415 318 414 312 l 373 89 q 371 80 371 67 q 371 40 388 40 q 409 40 446 80 q 447 81 449 81 z"},"]":{"x_min":0,"x_max":251,"ha":251,"o":"m 283 714 l 138 -107 q 137 -114 135 -116 q 133 -117 128 -117 l -27 -117 q -31 -117 -31 -111 q -31 -105 -27 -105 q 6 -105 22 -99 q 39 -93 47 -78 q 55 -64 61 -34 l 180 642 q 183 660 183 673 q 183 696 169 704 q 155 713 119 713 q 115 713 115 719 q 115 725 119 725 l 277 725 q 282 725 283 723 q 284 721 283 714 z"},"U":{"x_min":0,"x_max":716,"ha":716,"o":"m 735 613 q 708 613 694 608 q 680 602 673 588 q 666 574 661 544 l 579 81 q 575 55 575 49 q 575 27 590 20 q 604 12 641 12 q 645 12 645 6 q 645 0 641 0 l 551 1 l 482 0 q 474 0 472 2 q 469 3 469 9 l 470 19 l 478 63 q 427 24 380 6 q 333 -12 281 -12 q 194 -12 141 32 q 88 75 88 149 q 88 167 91 186 l 154 544 q 158 563 158 578 q 158 599 146 606 q 135 613 105 613 q 103 613 103 619 q 103 625 105 625 l 150 624 q 190 622 214 622 q 240 622 280 624 l 326 625 q 329 625 329 619 q 329 613 326 613 q 299 613 286 607 q 272 601 265 586 q 258 572 253 542 l 195 221 q 190 196 190 166 q 190 98 224 62 q 259 25 323 25 q 362 25 400 40 q 437 56 483 93 l 561 542 q 565 561 565 577 q 565 598 554 606 q 542 613 513 613 q 511 613 511 619 q 511 625 513 625 l 559 624 q 599 622 623 622 q 646 622 688 624 l 735 625 q 737 625 737 619 q 737 613 735 613 z"},"o":{"x_min":0,"x_max":408,"ha":408,"o":"m 23 139 q 23 169 28 193 q 39 253 72 300 q 104 347 150 373 q 196 399 249 399 q 316 399 352 358 q 387 318 387 250 q 387 223 381 193 q 368 127 334 80 q 299 34 252 10 q 206 -14 158 -14 q 92 -14 58 28 q 23 71 23 139 z m 282 149 q 289 188 289 228 q 289 293 270 334 q 250 375 216 375 q 186 375 162 340 q 139 305 127 236 q 120 197 120 157 q 120 92 139 52 q 158 11 192 11 q 224 11 248 48 q 271 85 282 149 z"},"N":{"x_min":0,"x_max":655,"ha":655,"o":"m 710 613 q 672 613 644 585 q 617 557 608 509 l 516 -7 q 516 -10 510 -12 q 505 -15 499 -15 q 490 -15 487 -9 l 199 517 l 127 116 q 125 106 125 88 q 125 52 143 32 q 161 12 193 12 q 195 12 195 6 q 195 0 193 0 q 167 0 153 1 l 96 2 l 42 1 q 27 0 -2 0 q -5 0 -5 6 q -5 12 -2 12 q 36 12 64 40 q 91 68 99 116 l 178 554 q 159 587 141 600 q 123 613 102 613 q 99 613 99 619 q 99 625 102 625 l 149 624 q 164 623 189 623 q 213 623 230 624 q 248 625 254 625 q 260 625 263 622 q 266 618 270 607 q 272 603 276 594 q 281 584 287 573 l 516 156 l 580 509 q 583 526 583 539 q 583 574 565 594 q 547 613 515 613 q 512 613 512 619 q 512 625 515 625 l 551 624 q 587 622 612 622 q 630 622 666 624 l 710 625 q 712 625 712 619 q 712 613 710 613 z"},"+":{"x_min":0,"x_max":398,"ha":398,"o":"m 369 190 q 369 181 368 174 q 366 166 364 166 l 222 166 l 222 25 q 222 23 214 22 q 205 20 195 20 q 175 20 175 23 l 175 166 l 34 166 q 32 166 30 174 q 29 182 29 191 q 29 199 30 206 q 32 213 33 213 l 175 213 l 175 354 q 175 356 182 358 q 190 359 199 359 q 207 359 214 358 q 222 356 222 354 l 222 213 l 364 213 q 366 213 368 206 q 369 198 369 190 z"},"G":{"x_min":0,"x_max":633,"ha":633,"o":"m 54 247 q 54 284 61 319 q 78 411 134 483 q 190 555 272 596 q 355 636 447 636 q 490 636 532 628 q 575 619 599 607 q 605 603 606 599 q 608 595 607 584 l 591 450 q 590 447 586 447 q 581 447 580 450 q 562 526 518 568 q 473 611 405 611 q 315 611 254 542 q 192 474 174 356 q 167 313 167 267 q 167 147 219 78 q 271 9 363 9 q 412 9 434 34 q 456 59 464 126 q 469 163 469 179 q 469 203 460 214 q 452 225 434 229 q 415 233 377 233 q 375 233 374 236 q 372 238 372 241 q 372 244 374 246 q 375 249 377 249 q 452 244 500 244 q 547 244 598 247 q 601 247 602 240 q 602 233 598 233 q 585 234 579 226 q 573 219 568 190 q 563 161 557 116 q 551 77 550 56 q 549 35 547 28 q 546 22 544 20 q 542 18 536 16 q 417 -12 330 -12 q 242 -12 180 21 q 118 54 86 112 q 54 171 54 247 z"},"q":{"x_min":0,"x_max":421,"ha":421,"o":"m 304 -178 q 301 -193 301 -204 q 301 -223 310 -232 q 320 -241 342 -241 q 348 -241 364 -239 l 365 -239 q 368 -239 369 -244 q 370 -249 366 -250 l 158 -275 q 154 -275 153 -270 q 152 -264 156 -263 q 180 -259 190 -253 q 201 -247 207 -232 q 213 -218 219 -185 l 273 124 q 238 59 190 23 q 142 -13 97 -13 q 60 -13 39 8 q 18 30 18 73 q 18 92 20 103 q 30 180 70 248 q 111 316 170 358 q 230 399 296 399 q 315 399 334 392 q 353 386 367 374 q 384 385 399 407 q 401 409 403 409 q 406 409 409 407 q 412 405 411 404 z m 292 232 q 296 255 296 277 q 296 314 280 332 q 263 350 229 350 q 186 350 155 309 q 124 268 112 177 q 109 144 109 137 q 109 60 159 60 q 208 60 244 111 q 280 162 292 232 z"},"d":{"x_min":0,"x_max":450,"ha":450,"o":"m 363 89 q 360 74 360 65 q 360 42 375 42 q 385 42 398 51 q 410 60 428 77 q 430 79 432 79 q 435 79 437 76 q 439 72 436 69 q 402 29 376 10 q 350 -9 322 -9 q 274 -9 274 48 q 274 68 278 89 l 291 158 q 250 77 204 32 q 157 -13 108 -13 q 70 -13 44 12 q 19 36 19 86 q 19 106 23 126 q 36 196 80 259 q 124 322 182 360 q 240 399 294 399 q 317 399 334 392 l 370 589 q 373 609 373 622 q 373 651 354 651 q 342 651 312 637 l 311 637 q 306 637 305 642 q 304 648 308 649 l 463 725 l 465 725 q 469 725 472 722 q 476 719 475 717 z m 306 243 l 311 270 q 315 308 293 329 q 271 350 237 350 q 139 350 111 180 q 107 156 107 131 q 107 57 158 57 q 190 57 220 87 q 251 117 274 160 q 296 204 306 243 z"},"1":{"x_min":0,"x_max":352,"ha":352,"o":"m 6 12 q 60 12 84 27 q 108 42 116 84 l 178 436 q 182 464 182 471 q 182 488 176 496 q 171 504 159 504 q 134 504 90 475 l 89 475 q 85 475 83 478 q 81 482 83 484 l 294 633 l 298 634 q 302 634 304 630 q 306 627 305 623 l 209 77 q 207 68 207 54 q 207 28 225 20 q 243 12 292 12 q 295 12 295 6 q 295 0 292 0 q 254 0 231 1 l 150 2 l 65 1 q 43 0 6 0 q 3 0 3 6 q 3 12 6 12 z"},"5":{"x_min":0,"x_max":412,"ha":412,"o":"m 431 656 q 434 656 436 654 q 438 653 437 651 l 408 561 q 404 550 398 547 q 392 544 380 544 l 185 549 q 174 549 168 535 l 128 386 q 183 398 223 398 q 296 398 337 361 q 378 324 378 255 q 378 230 372 200 q 352 99 289 44 q 226 -12 146 -12 q 104 -12 74 8 q 43 27 21 65 l 21 66 q 21 70 26 72 q 30 75 32 71 q 47 47 72 35 q 97 23 127 23 q 228 23 264 188 q 268 214 268 225 q 268 284 234 324 q 200 364 149 364 q 122 364 101 357 q 96 357 94 360 q 92 364 94 368 l 166 613 q 168 620 170 622 q 173 625 179 625 q 307 625 350 626 q 392 628 406 634 q 419 639 427 655 q 428 656 431 656 z"}}}
